<mxfile host="Electron" modified="2023-08-20T17:31:43.233Z" agent="Mozilla/5.0 (Windows NT 10.0; Win64; x64) AppleWebKit/537.36 (KHTML, like Gecko) draw.io/21.6.5 Chrome/114.0.5735.243 Electron/25.3.1 Safari/537.36" etag="oAo84mLRwUGe0kzsWMre" version="21.6.5" type="device">
  <diagram id="C5RBs43oDa-KdzZeNtuy" name="Page-1">
    <mxGraphModel dx="1290" dy="621" grid="1" gridSize="10" guides="1" tooltips="1" connect="1" arrows="1" fold="1" page="1" pageScale="1" pageWidth="827" pageHeight="1169" math="0" shadow="0">
      <root>
        <mxCell id="WIyWlLk6GJQsqaUBKTNV-0" />
        <mxCell id="WIyWlLk6GJQsqaUBKTNV-1" parent="WIyWlLk6GJQsqaUBKTNV-0" />
        <mxCell id="WIyWlLk6GJQsqaUBKTNV-2" value="" style="rounded=0;html=1;jettySize=auto;orthogonalLoop=1;fontSize=11;endArrow=block;endFill=0;endSize=8;strokeWidth=1;shadow=0;labelBackgroundColor=none;edgeStyle=orthogonalEdgeStyle;entryX=0.5;entryY=0;entryDx=0;entryDy=0;" parent="WIyWlLk6GJQsqaUBKTNV-1" source="WIyWlLk6GJQsqaUBKTNV-3" target="EacFXm1kWPTX99lC5XIj-1" edge="1">
          <mxGeometry relative="1" as="geometry">
            <mxPoint x="-140" y="162" as="targetPoint" />
          </mxGeometry>
        </mxCell>
        <mxCell id="WIyWlLk6GJQsqaUBKTNV-3" value="Start" style="rounded=1;whiteSpace=wrap;html=1;fontSize=12;glass=0;strokeWidth=1;shadow=0;" parent="WIyWlLk6GJQsqaUBKTNV-1" vertex="1">
          <mxGeometry x="20" y="12" width="120" height="40" as="geometry" />
        </mxCell>
        <mxCell id="EacFXm1kWPTX99lC5XIj-3" style="edgeStyle=orthogonalEdgeStyle;rounded=0;orthogonalLoop=1;jettySize=auto;html=1;exitX=0.5;exitY=1;exitDx=0;exitDy=0;" edge="1" parent="WIyWlLk6GJQsqaUBKTNV-1" source="EacFXm1kWPTX99lC5XIj-1">
          <mxGeometry relative="1" as="geometry">
            <mxPoint x="80.00000000000023" y="162" as="targetPoint" />
          </mxGeometry>
        </mxCell>
        <mxCell id="EacFXm1kWPTX99lC5XIj-1" value="Setup&lt;br&gt;Fungsion" style="shape=internalStorage;whiteSpace=wrap;html=1;backgroundOutline=1;dx=10;dy=10;" vertex="1" parent="WIyWlLk6GJQsqaUBKTNV-1">
          <mxGeometry x="30" y="82" width="100" height="50" as="geometry" />
        </mxCell>
        <mxCell id="EacFXm1kWPTX99lC5XIj-7" style="edgeStyle=orthogonalEdgeStyle;rounded=0;orthogonalLoop=1;jettySize=auto;html=1;exitX=1;exitY=0.5;exitDx=0;exitDy=0;entryX=0.5;entryY=0;entryDx=0;entryDy=0;" edge="1" parent="WIyWlLk6GJQsqaUBKTNV-1" source="EacFXm1kWPTX99lC5XIj-5" target="EacFXm1kWPTX99lC5XIj-9">
          <mxGeometry relative="1" as="geometry">
            <mxPoint x="245.04761904761904" y="202.030303030303" as="targetPoint" />
          </mxGeometry>
        </mxCell>
        <mxCell id="EacFXm1kWPTX99lC5XIj-5" value="" style="ellipse;whiteSpace=wrap;html=1;aspect=fixed;" vertex="1" parent="WIyWlLk6GJQsqaUBKTNV-1">
          <mxGeometry x="70" y="162" width="20" height="20" as="geometry" />
        </mxCell>
        <mxCell id="EacFXm1kWPTX99lC5XIj-40" style="edgeStyle=orthogonalEdgeStyle;rounded=0;orthogonalLoop=1;jettySize=auto;html=1;exitX=1;exitY=0.5;exitDx=0;exitDy=0;entryX=0.5;entryY=0;entryDx=0;entryDy=0;" edge="1" parent="WIyWlLk6GJQsqaUBKTNV-1" source="EacFXm1kWPTX99lC5XIj-9" target="EacFXm1kWPTX99lC5XIj-16">
          <mxGeometry relative="1" as="geometry" />
        </mxCell>
        <mxCell id="EacFXm1kWPTX99lC5XIj-9" value="&lt;font style=&quot;font-size: 11px;&quot;&gt;Read Button State&lt;/font&gt;" style="rhombus;whiteSpace=wrap;html=1;" vertex="1" parent="WIyWlLk6GJQsqaUBKTNV-1">
          <mxGeometry x="220" y="202" width="110" height="70" as="geometry" />
        </mxCell>
        <mxCell id="EacFXm1kWPTX99lC5XIj-12" value="Buttom&amp;nbsp; Low" style="text;html=1;strokeColor=none;fillColor=none;align=center;verticalAlign=middle;whiteSpace=wrap;rounded=0;" vertex="1" parent="WIyWlLk6GJQsqaUBKTNV-1">
          <mxGeometry x="93" y="272" width="60" height="40" as="geometry" />
        </mxCell>
        <mxCell id="EacFXm1kWPTX99lC5XIj-13" value="" style="endArrow=classic;html=1;rounded=0;exitX=0;exitY=0.5;exitDx=0;exitDy=0;entryX=0.5;entryY=0;entryDx=0;entryDy=0;" edge="1" parent="WIyWlLk6GJQsqaUBKTNV-1" source="EacFXm1kWPTX99lC5XIj-9" target="EacFXm1kWPTX99lC5XIj-70">
          <mxGeometry width="50" height="50" relative="1" as="geometry">
            <mxPoint x="210" y="212" as="sourcePoint" />
            <mxPoint x="183" y="502" as="targetPoint" />
            <Array as="points">
              <mxPoint x="183" y="237" />
            </Array>
          </mxGeometry>
        </mxCell>
        <mxCell id="EacFXm1kWPTX99lC5XIj-14" value="" style="endArrow=none;dashed=1;html=1;dashPattern=1 3;strokeWidth=2;rounded=0;exitX=1;exitY=0.5;exitDx=0;exitDy=0;" edge="1" parent="WIyWlLk6GJQsqaUBKTNV-1" source="EacFXm1kWPTX99lC5XIj-12">
          <mxGeometry width="50" height="50" relative="1" as="geometry">
            <mxPoint x="333" y="432" as="sourcePoint" />
            <mxPoint x="183" y="292" as="targetPoint" />
          </mxGeometry>
        </mxCell>
        <mxCell id="EacFXm1kWPTX99lC5XIj-32" style="edgeStyle=orthogonalEdgeStyle;rounded=0;orthogonalLoop=1;jettySize=auto;html=1;exitX=0.5;exitY=1;exitDx=0;exitDy=0;entryX=0.5;entryY=0;entryDx=0;entryDy=0;" edge="1" parent="WIyWlLk6GJQsqaUBKTNV-1" source="EacFXm1kWPTX99lC5XIj-16" target="EacFXm1kWPTX99lC5XIj-31">
          <mxGeometry relative="1" as="geometry" />
        </mxCell>
        <mxCell id="EacFXm1kWPTX99lC5XIj-16" value="Read Button&lt;br&gt;State" style="shape=parallelogram;perimeter=parallelogramPerimeter;whiteSpace=wrap;html=1;fixedSize=1;" vertex="1" parent="WIyWlLk6GJQsqaUBKTNV-1">
          <mxGeometry x="600" y="282" width="120" height="50" as="geometry" />
        </mxCell>
        <mxCell id="EacFXm1kWPTX99lC5XIj-20" value="" style="endArrow=none;dashed=1;html=1;dashPattern=1 3;strokeWidth=2;rounded=0;entryX=0;entryY=0.5;entryDx=0;entryDy=0;" edge="1" parent="WIyWlLk6GJQsqaUBKTNV-1">
          <mxGeometry width="50" height="50" relative="1" as="geometry">
            <mxPoint x="661" y="239" as="sourcePoint" />
            <mxPoint x="710.9999999999998" y="238" as="targetPoint" />
          </mxGeometry>
        </mxCell>
        <mxCell id="EacFXm1kWPTX99lC5XIj-21" value="" style="endArrow=none;dashed=1;html=1;dashPattern=1 3;strokeWidth=2;rounded=0;entryX=0;entryY=0;entryDx=0;entryDy=0;exitX=0;exitY=1;exitDx=0;exitDy=0;" edge="1" parent="WIyWlLk6GJQsqaUBKTNV-1">
          <mxGeometry width="50" height="50" relative="1" as="geometry">
            <mxPoint x="710.9999999999998" y="258" as="sourcePoint" />
            <mxPoint x="710.9999999999998" y="218" as="targetPoint" />
          </mxGeometry>
        </mxCell>
        <mxCell id="EacFXm1kWPTX99lC5XIj-22" value="" style="endArrow=none;dashed=1;html=1;rounded=0;entryX=1;entryY=0;entryDx=0;entryDy=0;exitX=0;exitY=0;exitDx=0;exitDy=0;" edge="1" parent="WIyWlLk6GJQsqaUBKTNV-1">
          <mxGeometry width="50" height="50" relative="1" as="geometry">
            <mxPoint x="710.9999999999998" y="218" as="sourcePoint" />
            <mxPoint x="770.9999999999998" y="218" as="targetPoint" />
          </mxGeometry>
        </mxCell>
        <mxCell id="EacFXm1kWPTX99lC5XIj-23" value="" style="endArrow=none;dashed=1;html=1;rounded=0;entryX=1;entryY=1;entryDx=0;entryDy=0;exitX=0;exitY=1;exitDx=0;exitDy=0;" edge="1" parent="WIyWlLk6GJQsqaUBKTNV-1">
          <mxGeometry width="50" height="50" relative="1" as="geometry">
            <mxPoint x="710.9999999999998" y="258" as="sourcePoint" />
            <mxPoint x="770.9999999999998" y="258" as="targetPoint" />
          </mxGeometry>
        </mxCell>
        <mxCell id="EacFXm1kWPTX99lC5XIj-25" value="" style="endArrow=none;dashed=1;html=1;dashPattern=1 3;strokeWidth=2;rounded=0;entryX=1;entryY=0;entryDx=0;entryDy=0;" edge="1" parent="WIyWlLk6GJQsqaUBKTNV-1">
          <mxGeometry width="50" height="50" relative="1" as="geometry">
            <mxPoint x="771" y="260" as="sourcePoint" />
            <mxPoint x="770.9999999999998" y="216" as="targetPoint" />
          </mxGeometry>
        </mxCell>
        <mxCell id="EacFXm1kWPTX99lC5XIj-26" value="Buttom&amp;nbsp;&lt;br&gt;HIGH" style="text;html=1;strokeColor=none;fillColor=none;align=center;verticalAlign=middle;whiteSpace=wrap;rounded=0;" vertex="1" parent="WIyWlLk6GJQsqaUBKTNV-1">
          <mxGeometry x="710" y="222" width="60" height="30" as="geometry" />
        </mxCell>
        <mxCell id="EacFXm1kWPTX99lC5XIj-27" value="" style="endArrow=none;dashed=1;html=1;dashPattern=1 3;strokeWidth=2;rounded=0;entryX=0;entryY=0;entryDx=0;entryDy=0;exitX=0;exitY=1;exitDx=0;exitDy=0;" edge="1" parent="WIyWlLk6GJQsqaUBKTNV-1" source="EacFXm1kWPTX99lC5XIj-12" target="EacFXm1kWPTX99lC5XIj-12">
          <mxGeometry width="50" height="50" relative="1" as="geometry">
            <mxPoint x="183" y="312" as="sourcePoint" />
            <mxPoint x="233" y="262" as="targetPoint" />
          </mxGeometry>
        </mxCell>
        <mxCell id="EacFXm1kWPTX99lC5XIj-28" value="" style="endArrow=none;dashed=1;html=1;dashPattern=1 3;strokeWidth=2;rounded=0;entryX=1;entryY=1;entryDx=0;entryDy=0;exitX=0;exitY=1;exitDx=0;exitDy=0;" edge="1" parent="WIyWlLk6GJQsqaUBKTNV-1" source="EacFXm1kWPTX99lC5XIj-12" target="EacFXm1kWPTX99lC5XIj-12">
          <mxGeometry width="50" height="50" relative="1" as="geometry">
            <mxPoint x="103" y="382" as="sourcePoint" />
            <mxPoint x="153" y="332" as="targetPoint" />
          </mxGeometry>
        </mxCell>
        <mxCell id="EacFXm1kWPTX99lC5XIj-29" value="" style="endArrow=none;dashed=1;html=1;dashPattern=1 3;strokeWidth=2;rounded=0;entryX=1;entryY=0;entryDx=0;entryDy=0;" edge="1" parent="WIyWlLk6GJQsqaUBKTNV-1" target="EacFXm1kWPTX99lC5XIj-12">
          <mxGeometry width="50" height="50" relative="1" as="geometry">
            <mxPoint x="93" y="272" as="sourcePoint" />
            <mxPoint x="103" y="232" as="targetPoint" />
          </mxGeometry>
        </mxCell>
        <mxCell id="EacFXm1kWPTX99lC5XIj-30" value="" style="endArrow=none;dashed=1;html=1;dashPattern=1 3;strokeWidth=2;rounded=0;entryX=1;entryY=0;entryDx=0;entryDy=0;" edge="1" parent="WIyWlLk6GJQsqaUBKTNV-1" target="EacFXm1kWPTX99lC5XIj-12">
          <mxGeometry width="50" height="50" relative="1" as="geometry">
            <mxPoint x="153" y="312" as="sourcePoint" />
            <mxPoint x="103" y="412" as="targetPoint" />
          </mxGeometry>
        </mxCell>
        <mxCell id="EacFXm1kWPTX99lC5XIj-33" style="edgeStyle=orthogonalEdgeStyle;rounded=0;orthogonalLoop=1;jettySize=auto;html=1;exitX=0.5;exitY=1;exitDx=0;exitDy=0;entryX=0.5;entryY=0;entryDx=0;entryDy=0;" edge="1" parent="WIyWlLk6GJQsqaUBKTNV-1" source="EacFXm1kWPTX99lC5XIj-31" target="EacFXm1kWPTX99lC5XIj-34">
          <mxGeometry relative="1" as="geometry">
            <mxPoint x="659.9411764705883" y="422" as="targetPoint" />
          </mxGeometry>
        </mxCell>
        <mxCell id="EacFXm1kWPTX99lC5XIj-31" value="Increment&lt;br&gt;Count" style="shape=parallelogram;perimeter=parallelogramPerimeter;whiteSpace=wrap;html=1;fixedSize=1;" vertex="1" parent="WIyWlLk6GJQsqaUBKTNV-1">
          <mxGeometry x="600" y="352" width="120" height="50" as="geometry" />
        </mxCell>
        <mxCell id="EacFXm1kWPTX99lC5XIj-37" style="edgeStyle=orthogonalEdgeStyle;rounded=0;orthogonalLoop=1;jettySize=auto;html=1;exitX=0.5;exitY=1;exitDx=0;exitDy=0;entryX=0.5;entryY=0;entryDx=0;entryDy=0;" edge="1" parent="WIyWlLk6GJQsqaUBKTNV-1" source="EacFXm1kWPTX99lC5XIj-34" target="EacFXm1kWPTX99lC5XIj-39">
          <mxGeometry relative="1" as="geometry">
            <mxPoint x="660" y="502" as="targetPoint" />
          </mxGeometry>
        </mxCell>
        <mxCell id="EacFXm1kWPTX99lC5XIj-34" value="count = 3" style="rounded=0;whiteSpace=wrap;html=1;" vertex="1" parent="WIyWlLk6GJQsqaUBKTNV-1">
          <mxGeometry x="620" y="432" width="80" height="40" as="geometry" />
        </mxCell>
        <mxCell id="EacFXm1kWPTX99lC5XIj-43" style="edgeStyle=orthogonalEdgeStyle;rounded=0;orthogonalLoop=1;jettySize=auto;html=1;exitX=1;exitY=0.5;exitDx=0;exitDy=0;entryX=0.5;entryY=0;entryDx=0;entryDy=0;" edge="1" parent="WIyWlLk6GJQsqaUBKTNV-1" source="EacFXm1kWPTX99lC5XIj-39" target="EacFXm1kWPTX99lC5XIj-42">
          <mxGeometry relative="1" as="geometry" />
        </mxCell>
        <mxCell id="EacFXm1kWPTX99lC5XIj-46" style="edgeStyle=orthogonalEdgeStyle;rounded=0;orthogonalLoop=1;jettySize=auto;html=1;exitX=0;exitY=0.5;exitDx=0;exitDy=0;entryX=0.5;entryY=0;entryDx=0;entryDy=0;" edge="1" parent="WIyWlLk6GJQsqaUBKTNV-1" source="EacFXm1kWPTX99lC5XIj-39" target="EacFXm1kWPTX99lC5XIj-48">
          <mxGeometry relative="1" as="geometry">
            <mxPoint x="535" y="577" as="targetPoint" />
          </mxGeometry>
        </mxCell>
        <mxCell id="EacFXm1kWPTX99lC5XIj-39" value="&lt;font style=&quot;font-size: 11px;&quot;&gt;CountEquals3&lt;/font&gt;" style="rhombus;whiteSpace=wrap;html=1;" vertex="1" parent="WIyWlLk6GJQsqaUBKTNV-1">
          <mxGeometry x="605" y="502" width="110" height="70" as="geometry" />
        </mxCell>
        <mxCell id="EacFXm1kWPTX99lC5XIj-42" value="count&amp;nbsp; = 1" style="rounded=0;whiteSpace=wrap;html=1;" vertex="1" parent="WIyWlLk6GJQsqaUBKTNV-1">
          <mxGeometry x="730" y="577" width="80" height="40" as="geometry" />
        </mxCell>
        <mxCell id="EacFXm1kWPTX99lC5XIj-44" value="Yes" style="text;html=1;strokeColor=none;fillColor=none;align=center;verticalAlign=middle;whiteSpace=wrap;rounded=0;" vertex="1" parent="WIyWlLk6GJQsqaUBKTNV-1">
          <mxGeometry x="725" y="512" width="45" height="20" as="geometry" />
        </mxCell>
        <mxCell id="EacFXm1kWPTX99lC5XIj-47" value="No" style="text;html=1;strokeColor=none;fillColor=none;align=center;verticalAlign=middle;whiteSpace=wrap;rounded=0;" vertex="1" parent="WIyWlLk6GJQsqaUBKTNV-1">
          <mxGeometry x="555" y="512" width="45" height="20" as="geometry" />
        </mxCell>
        <mxCell id="EacFXm1kWPTX99lC5XIj-59" style="edgeStyle=orthogonalEdgeStyle;rounded=0;orthogonalLoop=1;jettySize=auto;html=1;exitX=1;exitY=0.5;exitDx=0;exitDy=0;entryX=0.5;entryY=0;entryDx=0;entryDy=0;" edge="1" parent="WIyWlLk6GJQsqaUBKTNV-1" source="EacFXm1kWPTX99lC5XIj-48" target="EacFXm1kWPTX99lC5XIj-54">
          <mxGeometry relative="1" as="geometry" />
        </mxCell>
        <mxCell id="EacFXm1kWPTX99lC5XIj-62" style="edgeStyle=orthogonalEdgeStyle;rounded=0;orthogonalLoop=1;jettySize=auto;html=1;exitX=0;exitY=0.5;exitDx=0;exitDy=0;entryX=0.5;entryY=0;entryDx=0;entryDy=0;" edge="1" parent="WIyWlLk6GJQsqaUBKTNV-1" source="EacFXm1kWPTX99lC5XIj-48" target="EacFXm1kWPTX99lC5XIj-55">
          <mxGeometry relative="1" as="geometry" />
        </mxCell>
        <mxCell id="EacFXm1kWPTX99lC5XIj-48" value="&lt;font style=&quot;font-size: 11px;&quot;&gt;CountEquals3&lt;/font&gt;" style="rhombus;whiteSpace=wrap;html=1;" vertex="1" parent="WIyWlLk6GJQsqaUBKTNV-1">
          <mxGeometry x="480" y="577" width="110" height="70" as="geometry" />
        </mxCell>
        <mxCell id="EacFXm1kWPTX99lC5XIj-60" style="edgeStyle=orthogonalEdgeStyle;rounded=0;orthogonalLoop=1;jettySize=auto;html=1;exitX=0.5;exitY=1;exitDx=0;exitDy=0;entryX=0.5;entryY=0;entryDx=0;entryDy=0;" edge="1" parent="WIyWlLk6GJQsqaUBKTNV-1" source="EacFXm1kWPTX99lC5XIj-54" target="EacFXm1kWPTX99lC5XIj-56">
          <mxGeometry relative="1" as="geometry" />
        </mxCell>
        <mxCell id="EacFXm1kWPTX99lC5XIj-54" value="Tone +&lt;br&gt;Led ON" style="rounded=0;whiteSpace=wrap;html=1;" vertex="1" parent="WIyWlLk6GJQsqaUBKTNV-1">
          <mxGeometry x="600" y="662" width="80" height="40" as="geometry" />
        </mxCell>
        <mxCell id="EacFXm1kWPTX99lC5XIj-63" style="edgeStyle=orthogonalEdgeStyle;rounded=0;orthogonalLoop=1;jettySize=auto;html=1;exitX=0.5;exitY=1;exitDx=0;exitDy=0;entryX=0.5;entryY=0;entryDx=0;entryDy=0;" edge="1" parent="WIyWlLk6GJQsqaUBKTNV-1" source="EacFXm1kWPTX99lC5XIj-55" target="EacFXm1kWPTX99lC5XIj-80">
          <mxGeometry relative="1" as="geometry">
            <mxPoint x="413" y="732" as="targetPoint" />
          </mxGeometry>
        </mxCell>
        <mxCell id="EacFXm1kWPTX99lC5XIj-55" value="Led OFF" style="rounded=0;whiteSpace=wrap;html=1;" vertex="1" parent="WIyWlLk6GJQsqaUBKTNV-1">
          <mxGeometry x="373" y="662" width="80" height="40" as="geometry" />
        </mxCell>
        <mxCell id="EacFXm1kWPTX99lC5XIj-61" style="edgeStyle=orthogonalEdgeStyle;rounded=0;orthogonalLoop=1;jettySize=auto;html=1;exitX=0.5;exitY=1;exitDx=0;exitDy=0;entryX=0.5;entryY=0;entryDx=0;entryDy=0;" edge="1" parent="WIyWlLk6GJQsqaUBKTNV-1" source="EacFXm1kWPTX99lC5XIj-56" target="EacFXm1kWPTX99lC5XIj-57">
          <mxGeometry relative="1" as="geometry" />
        </mxCell>
        <mxCell id="EacFXm1kWPTX99lC5XIj-56" value="Delay&lt;br&gt;(1000)" style="rounded=0;whiteSpace=wrap;html=1;" vertex="1" parent="WIyWlLk6GJQsqaUBKTNV-1">
          <mxGeometry x="600" y="732" width="80" height="40" as="geometry" />
        </mxCell>
        <mxCell id="EacFXm1kWPTX99lC5XIj-76" style="edgeStyle=orthogonalEdgeStyle;rounded=0;orthogonalLoop=1;jettySize=auto;html=1;exitX=0.5;exitY=1;exitDx=0;exitDy=0;entryX=0.5;entryY=0;entryDx=0;entryDy=0;" edge="1" parent="WIyWlLk6GJQsqaUBKTNV-1" source="EacFXm1kWPTX99lC5XIj-57" target="EacFXm1kWPTX99lC5XIj-75">
          <mxGeometry relative="1" as="geometry" />
        </mxCell>
        <mxCell id="EacFXm1kWPTX99lC5XIj-57" value="Print&lt;br&gt;&quot;Selamat Datang&quot;" style="rounded=0;whiteSpace=wrap;html=1;" vertex="1" parent="WIyWlLk6GJQsqaUBKTNV-1">
          <mxGeometry x="565" y="802" width="150" height="40" as="geometry" />
        </mxCell>
        <mxCell id="EacFXm1kWPTX99lC5XIj-65" style="edgeStyle=orthogonalEdgeStyle;rounded=0;orthogonalLoop=1;jettySize=auto;html=1;exitX=0.5;exitY=0;exitDx=0;exitDy=0;entryX=0.5;entryY=1;entryDx=0;entryDy=0;" edge="1" parent="WIyWlLk6GJQsqaUBKTNV-1" source="EacFXm1kWPTX99lC5XIj-64" target="EacFXm1kWPTX99lC5XIj-5">
          <mxGeometry relative="1" as="geometry" />
        </mxCell>
        <mxCell id="EacFXm1kWPTX99lC5XIj-85" style="edgeStyle=orthogonalEdgeStyle;rounded=0;orthogonalLoop=1;jettySize=auto;html=1;exitX=0.5;exitY=1;exitDx=0;exitDy=0;entryX=0.5;entryY=0;entryDx=0;entryDy=0;" edge="1" parent="WIyWlLk6GJQsqaUBKTNV-1" source="EacFXm1kWPTX99lC5XIj-64" target="EacFXm1kWPTX99lC5XIj-84">
          <mxGeometry relative="1" as="geometry" />
        </mxCell>
        <mxCell id="EacFXm1kWPTX99lC5XIj-64" value="Loop Function" style="shape=hexagon;perimeter=hexagonPerimeter2;whiteSpace=wrap;html=1;fixedSize=1;" vertex="1" parent="WIyWlLk6GJQsqaUBKTNV-1">
          <mxGeometry x="35" y="862" width="90" height="50" as="geometry" />
        </mxCell>
        <mxCell id="EacFXm1kWPTX99lC5XIj-72" style="edgeStyle=orthogonalEdgeStyle;rounded=0;orthogonalLoop=1;jettySize=auto;html=1;exitX=0;exitY=0.5;exitDx=0;exitDy=0;entryX=1;entryY=0.5;entryDx=0;entryDy=0;" edge="1" parent="WIyWlLk6GJQsqaUBKTNV-1" source="EacFXm1kWPTX99lC5XIj-70" target="EacFXm1kWPTX99lC5XIj-64">
          <mxGeometry relative="1" as="geometry" />
        </mxCell>
        <mxCell id="EacFXm1kWPTX99lC5XIj-70" value="" style="ellipse;whiteSpace=wrap;html=1;aspect=fixed;" vertex="1" parent="WIyWlLk6GJQsqaUBKTNV-1">
          <mxGeometry x="170" y="877" width="20" height="20" as="geometry" />
        </mxCell>
        <mxCell id="EacFXm1kWPTX99lC5XIj-73" value="No" style="text;html=1;strokeColor=none;fillColor=none;align=center;verticalAlign=middle;whiteSpace=wrap;rounded=0;" vertex="1" parent="WIyWlLk6GJQsqaUBKTNV-1">
          <mxGeometry x="413" y="587" width="45" height="20" as="geometry" />
        </mxCell>
        <mxCell id="EacFXm1kWPTX99lC5XIj-74" value="Yes" style="text;html=1;strokeColor=none;fillColor=none;align=center;verticalAlign=middle;whiteSpace=wrap;rounded=0;" vertex="1" parent="WIyWlLk6GJQsqaUBKTNV-1">
          <mxGeometry x="600" y="587" width="45" height="20" as="geometry" />
        </mxCell>
        <mxCell id="EacFXm1kWPTX99lC5XIj-75" value="No Tone +&lt;br&gt;Led OFF" style="rounded=0;whiteSpace=wrap;html=1;" vertex="1" parent="WIyWlLk6GJQsqaUBKTNV-1">
          <mxGeometry x="600" y="872" width="80" height="40" as="geometry" />
        </mxCell>
        <mxCell id="EacFXm1kWPTX99lC5XIj-82" style="edgeStyle=orthogonalEdgeStyle;rounded=0;orthogonalLoop=1;jettySize=auto;html=1;exitX=0.5;exitY=1;exitDx=0;exitDy=0;" edge="1" parent="WIyWlLk6GJQsqaUBKTNV-1" source="EacFXm1kWPTX99lC5XIj-80" target="EacFXm1kWPTX99lC5XIj-81">
          <mxGeometry relative="1" as="geometry" />
        </mxCell>
        <mxCell id="EacFXm1kWPTX99lC5XIj-80" value="Print&lt;br&gt;&quot;Selamat jalan&quot;" style="rounded=0;whiteSpace=wrap;html=1;" vertex="1" parent="WIyWlLk6GJQsqaUBKTNV-1">
          <mxGeometry x="339" y="732" width="150" height="40" as="geometry" />
        </mxCell>
        <mxCell id="EacFXm1kWPTX99lC5XIj-83" style="edgeStyle=orthogonalEdgeStyle;rounded=0;orthogonalLoop=1;jettySize=auto;html=1;exitX=0.5;exitY=1;exitDx=0;exitDy=0;entryX=1;entryY=0.5;entryDx=0;entryDy=0;" edge="1" parent="WIyWlLk6GJQsqaUBKTNV-1" source="EacFXm1kWPTX99lC5XIj-81" target="EacFXm1kWPTX99lC5XIj-70">
          <mxGeometry relative="1" as="geometry" />
        </mxCell>
        <mxCell id="EacFXm1kWPTX99lC5XIj-81" value="Delay&lt;br&gt;(250)" style="rounded=0;whiteSpace=wrap;html=1;" vertex="1" parent="WIyWlLk6GJQsqaUBKTNV-1">
          <mxGeometry x="374" y="802" width="80" height="40" as="geometry" />
        </mxCell>
        <mxCell id="EacFXm1kWPTX99lC5XIj-84" value="Stop Simulation" style="rounded=1;whiteSpace=wrap;html=1;" vertex="1" parent="WIyWlLk6GJQsqaUBKTNV-1">
          <mxGeometry x="20" y="972" width="120" height="40" as="geometry" />
        </mxCell>
        <mxCell id="EacFXm1kWPTX99lC5XIj-87" value="Yes" style="text;html=1;strokeColor=none;fillColor=none;align=center;verticalAlign=middle;whiteSpace=wrap;rounded=0;" vertex="1" parent="WIyWlLk6GJQsqaUBKTNV-1">
          <mxGeometry x="339" y="210" width="45" height="20" as="geometry" />
        </mxCell>
        <mxCell id="EacFXm1kWPTX99lC5XIj-88" value="No" style="text;html=1;strokeColor=none;fillColor=none;align=center;verticalAlign=middle;whiteSpace=wrap;rounded=0;" vertex="1" parent="WIyWlLk6GJQsqaUBKTNV-1">
          <mxGeometry x="157.5" y="210" width="45" height="20" as="geometry" />
        </mxCell>
      </root>
    </mxGraphModel>
  </diagram>
</mxfile>
